<svg xmlns="http://www.w3.org/2000/svg" width="1200" height="330" viewBox="0 0 1200 330" role="img" aria-label="hermes-safe-update: snapshot, hermes update, battery, then verified success or verified rollback"><rect width="1200" height="330" rx="16" fill="#0d1117" stroke="#30363d"/><text x="60" y="78" font-family="ui-monospace, SFMono-Regular, 'SF Mono', Menlo, Consolas, 'Liberation Mono', monospace" font-size="38" font-weight="700" fill="#e6edf3">hermes-safe-update</text><text x="60" y="112" font-family="ui-sans-serif, -apple-system, 'Segoe UI', Helvetica, Arial, sans-serif" font-size="18" fill="#8b949e">Run <tspan font-family="ui-monospace, SFMono-Regular, 'SF Mono', Menlo, Consolas, 'Liberation Mono', monospace" fill="#e6edf3">hermes update</tspan>. Prove the agent still answers. Roll back if it does not.</text><rect x="60" y="170" width="190" height="70" rx="10" fill="#161b22" stroke="#30363d" stroke-width="1.5"/><text x="155.0" y="200" text-anchor="middle" font-family="ui-sans-serif, -apple-system, 'Segoe UI', Helvetica, Arial, sans-serif" font-size="17" font-weight="600" fill="#e6edf3">snapshot</text><text x="155.0" y="222" text-anchor="middle" font-family="ui-sans-serif, -apple-system, 'Segoe UI', Helvetica, Arial, sans-serif" font-size="12.5" fill="#8b949e">commit + configs + units</text><line x1="250" y1="205" x2="293" y2="205" stroke="#8b949e" stroke-width="1.8"/><path d="M292,200 L300,205 L292,210 Z" fill="#8b949e"/><rect x="300" y="170" width="190" height="70" rx="10" fill="#161b22" stroke="#30363d" stroke-width="1.5"/><text x="395.0" y="200" text-anchor="middle" font-family="ui-sans-serif, -apple-system, 'Segoe UI', Helvetica, Arial, sans-serif" font-size="17" font-weight="600" fill="#e6edf3">hermes update</text><text x="395.0" y="222" text-anchor="middle" font-family="ui-sans-serif, -apple-system, 'Segoe UI', Helvetica, Arial, sans-serif" font-size="12.5" fill="#8b949e">the stock updater</text><line x1="490" y1="205" x2="533" y2="205" stroke="#8b949e" stroke-width="1.8"/><path d="M532,200 L540,205 L532,210 Z" fill="#8b949e"/><rect x="540" y="170" width="190" height="70" rx="10" fill="#161b22" stroke="#58a6ff" stroke-width="1.5"/><text x="635.0" y="200" text-anchor="middle" font-family="ui-sans-serif, -apple-system, 'Segoe UI', Helvetica, Arial, sans-serif" font-size="17" font-weight="600" fill="#e6edf3">battery</text><text x="635.0" y="222" text-anchor="middle" font-family="ui-sans-serif, -apple-system, 'Segoe UI', Helvetica, Arial, sans-serif" font-size="12.5" fill="#8b949e">gateway · platforms · turn</text><line x1="730" y1="190" x2="793" y2="168" stroke="#3fb950" stroke-width="1.8"/><path d="M792,163 L800,168 L792,173 Z" fill="#3fb950"/><rect x="800" y="138" width="330" height="56" rx="10" fill="none" stroke="#3fb950" stroke-width="1.5"/><text x="822" y="172" font-family="ui-monospace, SFMono-Regular, 'SF Mono', Menlo, Consolas, 'Liberation Mono', monospace" font-size="16" font-weight="700" fill="#3fb950">✓ VERIFIED SUCCESS</text><line x1="730" y1="220" x2="793" y2="252" stroke="#d29922" stroke-width="1.8"/><path d="M792,247 L800,252 L792,257 Z" fill="#d29922"/><rect x="800" y="224" width="330" height="56" rx="10" fill="none" stroke="#d29922" stroke-width="1.5"/><text x="822" y="252" font-family="ui-monospace, SFMono-Regular, 'SF Mono', Menlo, Consolas, 'Liberation Mono', monospace" font-size="16" font-weight="700" fill="#d29922">↺ VERIFIED ROLLBACK</text><text x="822" y="271" font-family="ui-sans-serif, -apple-system, 'Segoe UI', Helvetica, Arial, sans-serif" font-size="12.5" fill="#8b949e">restore snapshot, run the battery again</text></svg>